<svg width="46" height="49" viewBox="0 0 46 49" fill="none" xmlns="http://www.w3.org/2000/svg">
<path d="M13.3076 4.09683C13.3076 2.45653 14.5815 1.12793 16.1543 1.12793H41.7741C43.3468 1.12793 44.6207 2.45653 44.6207 4.09683C44.6207 5.73713 43.3468 7.06573 41.7741 7.06573H18.8138" stroke="#14142B" stroke-width="1.8" stroke-miterlimit="10" stroke-linecap="round" stroke-linejoin="round"/>
<path d="M33.9691 21.2437H3.16113V27.8455H33.9691V21.2437Z" stroke="#14142B" stroke-width="1.8" stroke-miterlimit="10" stroke-linecap="round" stroke-linejoin="round"/>
<path d="M33.9686 47.6504H3.16046C1.94466 47.6504 0.959961 46.6657 0.959961 45.4498V27.8452H36.1692V45.4498C36.1692 46.6657 35.1844 47.6504 33.9686 47.6504Z" stroke="#14142B" stroke-width="1.8" stroke-miterlimit="10" stroke-linecap="round" stroke-linejoin="round"/>
<path d="M11.9619 0.330078V12.8045C11.9619 13.6613 12.6262 14.3553 13.4464 14.3553C14.2665 14.3553 14.9308 13.6613 14.9308 12.8045C14.9308 11.9476 15.5951 11.2536 16.4153 11.2536C17.2354 11.2536 17.8997 11.9476 17.8997 12.8045V15.9061C17.8997 16.7629 18.564 17.4569 19.3842 17.4569C20.2044 17.4569 20.8687 16.7629 20.8687 15.9061V0.397778" fill="#EBA37A"/>
</svg>
