<svg width="56" height="58" viewBox="0 0 56 58" fill="none" xmlns="http://www.w3.org/2000/svg">
<path d="M30.3568 3.95874C16.4409 3.95874 4.62305 16.3343 4.62305 30.2369C4.62305 33.437 5.22065 36.584 6.30945 39.5318C9.94775 49.411 19.0966 57.0727 29.8124 57.0727C40.5281 57.0727 49.677 49.411 53.3153 39.5318C54.4041 36.584 55.0017 33.437 55.0017 30.2369C55.0017 16.3343 44.2727 3.95874 30.3568 3.95874ZM12.8823 27.3023C12.8823 25.4566 15.8699 23.9694 19.5481 23.9694C23.2262 23.9694 26.2139 25.4566 26.2139 27.3023C26.2139 29.148 23.2262 30.6352 19.5481 30.6352C15.8699 30.6352 12.8823 29.148 12.8823 27.3023ZM29.8124 49.1056C25.5632 49.1056 22.1241 47.6184 22.1241 45.7727C22.1241 43.927 25.5632 42.4398 29.8124 42.4398C34.0615 42.4398 37.5006 43.927 37.5006 45.7727C37.5006 47.6184 34.0615 49.1056 29.8124 49.1056ZM40.0634 30.6352C36.3852 30.6352 33.3975 29.148 33.3975 27.3023C33.3975 25.4566 36.3852 23.9694 40.0634 23.9694C43.7415 23.9694 46.7292 25.4566 46.7292 27.3023C46.7292 29.148 43.7548 30.6352 40.0634 30.6352Z" fill="#EBA37A"/>
<path d="M27.7409 1.30303V0.307129C24.1159 0.307129 20.6237 1.11713 17.4368 2.55123C12.6566 4.70233 8.55355 8.24763 5.64555 12.6163C2.73755 16.9849 0.998047 22.1635 0.998047 27.5944C0.998047 30.9141 1.62215 34.1806 2.75085 37.2346C4.63635 42.3468 7.94275 46.8748 12.1785 50.1546C14.3031 51.7879 16.6534 53.1024 19.1763 54.0186C21.6992 54.9349 24.3948 55.4262 27.1965 55.4262C29.9983 55.4262 32.6938 54.9216 35.2167 54.0186C39.0011 52.651 42.4004 50.367 45.2022 47.4723C48.0039 44.5776 50.2214 41.0721 51.629 37.2346C52.7576 34.1806 53.3817 30.9141 53.3817 27.5944C53.3817 20.3842 50.6065 13.5723 46.0121 8.56633C43.715 6.05673 40.9663 3.99853 37.8857 2.56453C34.7918 1.13043 31.366 0.320429 27.7409 0.320429V1.30303V2.29893C31.0738 2.29893 34.2076 3.04253 37.0359 4.35713C41.285 6.33553 44.8835 9.62863 47.4064 13.6786C49.9293 17.7418 51.3899 22.5619 51.3899 27.5812C51.3899 30.6618 50.819 33.6893 49.77 36.5309C48.0172 41.2978 44.9233 45.5337 40.9929 48.5612C39.0277 50.0749 36.8633 51.2965 34.5395 52.1198C32.2158 52.9564 29.7593 53.4078 27.1965 53.4078C24.6338 53.4078 22.1772 52.9564 19.8535 52.1198C16.3745 50.8716 13.2275 48.7603 10.6249 46.0648C8.02245 43.3693 5.95095 40.1028 4.63635 36.5309C3.58735 33.6893 3.01645 30.6618 3.01645 27.5812C3.01645 24.2482 3.72015 20.995 5.00815 17.9941C6.92025 13.4927 10.1204 9.56223 14.0774 6.76053C18.0476 3.95873 22.7615 2.29893 27.7542 2.29893V1.30303H27.7409ZM10.2664 24.6466H11.2623C11.2623 24.5537 11.2756 24.4607 11.3287 24.3545C11.3685 24.2615 11.4217 24.1553 11.5146 24.0491C11.674 23.8499 11.913 23.6374 12.2449 23.425C12.7362 23.1063 13.4267 22.8274 14.2234 22.6283C15.0334 22.4291 15.9496 22.3096 16.9322 22.3096C17.7821 22.3096 18.592 22.4025 19.3224 22.5486C19.8668 22.6681 20.3581 22.8142 20.7963 23.0001C21.115 23.1329 21.4071 23.2789 21.6461 23.4382C22.0046 23.664 22.2702 23.9163 22.4163 24.1155C22.4959 24.2217 22.5358 24.3146 22.5623 24.4076C22.5889 24.5005 22.6022 24.5669 22.6022 24.6466C22.6022 24.7396 22.5889 24.8325 22.5358 24.9387C22.4959 25.0317 22.4428 25.1379 22.3499 25.2441C22.1905 25.4433 21.9515 25.6558 21.6195 25.8682C21.1282 26.1869 20.4378 26.4658 19.641 26.6649C18.8311 26.8641 17.9148 26.9836 16.9322 26.9836C16.0824 26.9836 15.2724 26.8907 14.5421 26.7446C13.9977 26.6251 13.5064 26.479 13.0682 26.2931C12.7495 26.1603 12.4574 26.0143 12.2184 25.8549C11.8598 25.6292 11.5943 25.3769 11.4482 25.1777C11.3685 25.0715 11.3287 24.9786 11.3022 24.8856C11.2756 24.7927 11.2623 24.7263 11.2623 24.6466H10.2664H9.27055C9.27055 25.0051 9.35025 25.3636 9.48305 25.6956C9.60255 25.9877 9.76185 26.24 9.94775 26.4923C10.2797 26.9172 10.7046 27.2625 11.1826 27.5679C11.913 28.0193 12.7761 28.3646 13.7454 28.6036C14.7147 28.8426 15.7903 28.9754 16.9322 28.9754C17.9148 28.9754 18.8709 28.8692 19.734 28.6965C20.3847 28.5638 20.9955 28.3779 21.5532 28.1388C21.9648 27.9662 22.3631 27.767 22.7084 27.5413C23.2395 27.2093 23.691 26.811 24.0362 26.3197C24.2088 26.0807 24.3416 25.8151 24.4479 25.5363C24.5408 25.2574 24.5939 24.952 24.5939 24.6466C24.5939 24.2881 24.5143 23.9296 24.3815 23.5976C24.262 23.3055 24.1026 23.0532 23.9167 22.8009C23.5848 22.376 23.1599 22.0307 22.6818 21.7253C21.9515 21.2739 21.0884 20.9286 20.1191 20.6896C19.1497 20.4506 18.0742 20.3178 16.9322 20.3178C15.9496 20.3178 15.0068 20.424 14.1305 20.5967C13.4798 20.7294 12.869 20.9153 12.3113 21.1544C11.8997 21.327 11.5013 21.5262 11.1561 21.7519C10.6249 22.0838 10.1735 22.4822 9.82825 22.9735C9.65565 23.2125 9.52285 23.4781 9.41665 23.7569C9.32375 24.0358 9.27055 24.3412 9.27055 24.6466H10.2664ZM27.1965 46.4499V45.454C26.1873 45.454 25.2446 45.3611 24.3815 45.2017C23.7441 45.0822 23.1466 44.9229 22.642 44.7502C22.2569 44.6175 21.9117 44.4581 21.6328 44.2988C21.1946 44.0598 20.8892 43.8075 20.7166 43.595C20.6237 43.4888 20.5705 43.3958 20.544 43.3162C20.5174 43.2365 20.5041 43.1834 20.5041 43.117C20.5041 43.0373 20.5174 42.9709 20.5705 42.8647C20.6104 42.785 20.6768 42.6788 20.783 42.5593C20.9689 42.3601 21.261 42.1211 21.6594 41.9087C22.2569 41.59 23.0669 41.2978 24.023 41.0854C24.979 40.8862 26.0546 40.7667 27.2098 40.7667C28.219 40.7667 29.1617 40.8596 30.0248 41.0057C30.6622 41.1252 31.2597 41.2846 31.7643 41.4572C32.1494 41.59 32.4946 41.7493 32.7735 41.9087C33.2117 42.1477 33.5171 42.3999 33.6897 42.6124C33.7827 42.7186 33.8358 42.8116 33.8623 42.8913C33.8889 42.9709 33.9022 43.024 33.9022 43.0904C33.9022 43.1701 33.8889 43.2365 33.8358 43.3427C33.7959 43.4224 33.7295 43.5286 33.6233 43.6481C33.4374 43.8473 33.1453 44.0863 32.7469 44.2988C32.1494 44.6175 31.3394 44.9096 30.3834 45.122C29.4273 45.3212 28.3517 45.4407 27.1965 45.4407V46.4499V47.4458C28.3119 47.4458 29.3875 47.3528 30.3701 47.1669C31.1137 47.0342 31.7909 46.8483 32.4282 46.6225C32.893 46.4499 33.3312 46.264 33.7295 46.0383C34.3271 45.7063 34.8317 45.3212 35.23 44.8432C35.4292 44.6042 35.5885 44.3386 35.708 44.0465C35.8275 43.7544 35.8939 43.4357 35.8939 43.1037C35.8939 42.7186 35.801 42.3468 35.6416 42.0016C35.5089 41.7095 35.323 41.4439 35.0972 41.2049C34.7121 40.7933 34.2474 40.448 33.703 40.1426C32.893 39.7044 31.9104 39.3592 30.8083 39.1202C29.7061 38.8812 28.4845 38.7616 27.1965 38.7616C26.0811 38.7616 25.0056 38.8546 24.023 39.0405C23.2794 39.1733 22.6022 39.3592 21.9648 39.5849C21.5 39.7575 21.0619 39.9434 20.6635 40.1692C20.066 40.5011 19.5614 40.8862 19.163 41.3642C18.9638 41.6032 18.8045 41.8688 18.685 42.1609C18.5655 42.4531 18.4991 42.7718 18.4991 43.1037C18.4991 43.4888 18.5921 43.8606 18.7514 44.2058C18.8842 44.498 19.0701 44.7635 19.2958 45.0025C19.6809 45.4142 20.1456 45.7594 20.6901 46.0648C21.5 46.503 22.4827 46.8483 23.5848 47.0873C24.6869 47.3263 25.9085 47.4458 27.1965 47.4458V46.4499ZM37.4608 27.9795V26.9836C36.611 26.9836 35.801 26.8907 35.0707 26.7446C34.5263 26.6251 34.0349 26.479 33.5967 26.2931C33.2781 26.1603 32.9859 26.0143 32.7469 25.8549C32.3884 25.6292 32.1228 25.3769 31.9768 25.1777C31.8971 25.0715 31.8573 24.9786 31.8307 24.8856C31.8042 24.7927 31.7909 24.7263 31.7909 24.6466C31.7909 24.5537 31.8042 24.4607 31.8573 24.3545C31.8971 24.2615 31.9502 24.1553 32.0432 24.0491C32.2025 23.8499 32.4415 23.6374 32.7735 23.425C33.2648 23.1063 33.9553 22.8274 34.752 22.6283C35.562 22.4291 36.4782 22.3096 37.4608 22.3096C38.3106 22.3096 39.1206 22.4025 39.8509 22.5486C40.3954 22.6681 40.8867 22.8142 41.3248 23.0001C41.6435 23.1329 41.9357 23.2789 42.1747 23.4382C42.5332 23.664 42.7988 23.9163 42.9448 24.1155C43.0245 24.2217 43.0643 24.3146 43.0909 24.4076C43.1174 24.5005 43.1307 24.5669 43.1307 24.6466C43.1307 24.7396 43.1174 24.8325 43.0643 24.9387C43.0245 25.0317 42.9714 25.1379 42.8784 25.2441C42.7191 25.4433 42.4801 25.6558 42.1481 25.8682C41.6568 26.1869 40.9663 26.4658 40.1696 26.6649C39.3596 26.8641 38.4434 26.9836 37.4608 26.9836V27.9795V28.9754C38.4434 28.9754 39.3862 28.8692 40.2626 28.6965C40.9132 28.5638 41.524 28.3779 42.0817 28.1388C42.4933 27.9662 42.8917 27.767 43.237 27.5413C43.7681 27.2093 44.2196 26.811 44.5648 26.3197C44.7374 26.0807 44.8702 25.8151 44.9764 25.5363C45.0694 25.2574 45.1225 24.952 45.1225 24.6466C45.1225 24.2881 45.0428 23.9296 44.91 23.5976C44.7905 23.3055 44.6312 23.0532 44.4453 22.8009C44.1133 22.376 43.6884 22.0307 43.2104 21.7253C42.4801 21.2739 41.617 20.9286 40.6476 20.6896C39.6783 20.4506 38.6028 20.3178 37.4608 20.3178C36.4782 20.3178 35.5221 20.424 34.659 20.5967C34.0084 20.7294 33.3976 20.9153 32.8399 21.1544C32.4282 21.327 32.0299 21.5262 31.6847 21.7519C31.1535 22.0838 30.702 22.4822 30.3568 22.9735C30.1842 23.2125 30.0514 23.4781 29.9452 23.7569C29.8522 24.0358 29.7991 24.3412 29.7991 24.6466C29.7991 25.0051 29.8788 25.3636 30.0116 25.6956C30.1311 25.9877 30.2904 26.24 30.4763 26.4923C30.8083 26.9172 31.2332 27.2625 31.7112 27.5679C32.4415 28.0193 33.3046 28.3646 34.274 28.6036C35.2433 28.8426 36.3189 28.9754 37.4608 28.9754V27.9795Z" fill="#14142B"/>
<path d="M24.1817 28.7498L22.4687 35.15C22.4289 35.3227 22.4023 35.4953 22.4023 35.6679C22.4023 35.9335 22.4554 36.199 22.5617 36.438C22.7077 36.7966 22.96 37.102 23.2787 37.3277C23.5974 37.5534 23.9957 37.6862 24.4207 37.6862H29.9578C30.2367 37.6862 30.5155 37.6331 30.7545 37.5269C31.1263 37.3675 31.4317 37.102 31.6442 36.7833C31.8566 36.4646 31.9761 36.0795 31.9761 35.6679C31.9761 35.4953 31.9496 35.3227 31.9097 35.15L30.1968 28.7498C30.0507 28.2186 29.5063 27.9 28.9752 28.046C28.444 28.1921 28.1254 28.7365 28.2714 29.2676L29.9844 35.6679V35.6812V35.6944L29.9711 35.7077C29.9711 35.7077 29.9711 35.7077 29.9578 35.7077H24.4207H24.4074L24.3941 35.6944V35.6812V35.6679L26.107 29.2676C26.2531 28.7365 25.9344 28.1921 25.4033 28.046C24.8721 27.9 24.3277 28.2186 24.1817 28.7498Z" fill="#14142B"/>
</svg>
