<svg width="52" height="45" viewBox="0 0 52 45" fill="none" xmlns="http://www.w3.org/2000/svg">
<path d="M6.31534 24.1879C6.90774 26.417 5.45074 32.7546 4.36424 35.8483C3.41394 38.5574 3.88284 42.1635 5.26264 43.1138C7.08604 44.3659 14.9831 44.05 17.3132 43.358C17.5294 43.2949 17.5125 43.3257 17.7371 43.2303C19.1029 37.544 12.3919 36.6133 19.0397 24.9488M38.8555 8.58456C40.2774 7.17956 42.5541 7.34936 43.8455 8.19016C45.151 9.03936 47.126 9.26396 48.7051 7.90526M39.5657 14.0239C41.2277 12.0896 43.8891 12.3241 45.3994 13.4807C46.9238 14.6486 49.2343 14.9574 51.0787 13.0877M38.8555 19.2639C40.2774 17.8588 42.5541 18.0286 43.8455 18.8694C45.151 19.7186 47.126 19.9432 48.7051 18.5845M12.9856 1.61816C17.4227 1.61816 29.9224 5.57226 35.0431 6.70646V20.5384C29.9224 21.6725 17.4227 25.6267 12.9856 25.6267C6.35614 25.6267 0.981445 20.2521 0.981445 13.6225C0.981445 6.99287 6.35614 1.61816 12.9856 1.61816Z" stroke="#14142B" stroke-width="1.5" stroke-miterlimit="22.9256" stroke-linecap="round" stroke-linejoin="round"/>
<path d="M13.055 21.1399C17.0586 21.1399 20.3042 17.8943 20.3042 13.8906C20.3042 9.88698 17.0586 6.64136 13.055 6.64136C9.05128 6.64136 5.80566 9.88698 5.80566 13.8906C5.80566 17.8943 9.05128 21.1399 13.055 21.1399Z" fill="#EBA37A"/>
</svg>
