<svg width="44" height="51" viewBox="0 0 44 51" fill="none" xmlns="http://www.w3.org/2000/svg">
<path d="M27.3243 47.925C27.3243 49.0965 26.3658 50.055 25.1943 50.055H3.89465C2.72315 50.055 1.76465 49.0965 1.76465 47.925V29.8202C1.76465 28.6487 2.72315 27.6902 3.89465 27.6902H25.1943C26.3658 27.6902 27.3243 28.6487 27.3243 29.8202V47.925Z" stroke="#14142B" stroke-width="1.8" stroke-miterlimit="10"/>
<path d="M9.21973 27.69L10.1995 3.11013C10.2528 1.97063 11.1899 1.06543 12.3295 1.06543H16.7598C17.8994 1.06543 18.8472 1.97063 18.8898 3.11013L19.8696 27.69" stroke="#14142B" stroke-width="1.8" stroke-miterlimit="10"/>
<path d="M42.2348 23.4302L41.255 48.0101C41.2124 49.1497 40.2753 50.0549 39.1251 50.0549H34.6947C33.5552 50.0549 32.6073 49.1497 32.5647 48.0101L31.585 23.4302H42.2348Z" stroke="#14142B" stroke-width="1.8" stroke-miterlimit="10"/>
<path d="M36.9092 23.4303V10.6504" stroke="#14142B" stroke-width="1.8" stroke-miterlimit="10"/>
<path d="M34.7793 1.06543L36.9093 10.6502L39.0392 1.06543H34.7793Z" stroke="#14142B" stroke-width="1.8" stroke-miterlimit="10"/>
<path d="M23.9019 33.6846H5.4502C4.89791 33.6846 4.4502 34.1323 4.4502 34.6846V46.5801C4.4502 47.1324 4.89791 47.5801 5.4502 47.5801H23.9019C24.4542 47.5801 24.9019 47.1324 24.9019 46.5801V34.6846C24.9019 34.1323 24.4542 33.6846 23.9019 33.6846Z" fill="#EBA37A"/>
</svg>
