<svg width="23" height="22" viewBox="0 0 23 22" fill="none" xmlns="http://www.w3.org/2000/svg">
<path d="M1.39525 3.39969C2.19525 -0.0603125 7.40525 -0.0603125 8.19525 3.39969C8.66525 5.42969 7.37525 7.14969 6.25525 8.21969C5.43525 8.99969 4.14525 8.98969 3.32525 8.21969C2.21525 7.14969 0.925251 5.42969 1.39525 3.39969Z" stroke="#14142A" stroke-width="1.5"/>
<path d="M14.3952 15.3997C15.1952 11.9397 20.4352 11.9397 21.2352 15.3997C21.7052 17.4297 20.4152 19.1497 19.2852 20.2197C18.4652 20.9997 17.1652 20.9897 16.3452 20.2197C15.2152 19.1497 13.9252 17.4297 14.3952 15.3997Z" stroke="#14142A" stroke-width="1.5"/>
<path d="M11.3249 3.7998H14.0049C15.8549 3.7998 16.7149 6.0898 15.3249 7.3098L7.3349 14.2998C5.9449 15.5098 6.8049 17.7998 8.6449 17.7998H11.3249" stroke="#14142A" stroke-width="1.5" stroke-linecap="round" stroke-linejoin="round"/>
<path d="M4.8119 4.2998H4.82345" stroke="#14142A" stroke-width="2" stroke-linecap="round" stroke-linejoin="round"/>
<path d="M17.8119 16.2998H17.8235" stroke="#14142A" stroke-width="2" stroke-linecap="round" stroke-linejoin="round"/>
</svg>
