<svg width="18" height="60" viewBox="0 0 18 60" fill="none" xmlns="http://www.w3.org/2000/svg">
<path d="M6.35668 8.58663C6.35668 8.58663 10.0089 5.37813 11.0131 5.37813C12.0173 5.37813 12.5382 6.37443 12.6731 6.87253V23.5681C12.6731 23.9659 12.3506 24.2883 11.9529 24.2883H5.14208V12.4543C5.14208 10.3798 5.95188 9.01143 6.35668 8.58663Z" fill="#EBA37A"/>
<path d="M15.4875 57.9166H2.32398C1.86128 57.9166 1.48488 57.5402 1.48488 57.0775V55.047H16.3232V57.0775C16.3232 57.5402 15.9502 57.9166 15.4875 57.9166ZM2.32398 33.4094H15.4875C15.9502 33.4094 16.3266 33.7858 16.3266 34.2485V53.6588H1.48828V34.2485C1.48828 33.7858 1.86128 33.4094 2.32398 33.4094ZM3.89518 10.7392C3.90548 8.87804 4.84478 7.14103 6.40218 6.12233L11.7097 2.58633C12.1552 2.28583 12.7284 2.25823 13.2015 2.51723C13.6435 2.74173 13.9198 3.19753 13.9198 3.69133V25.2288H3.89518V10.7392ZM3.09408 26.9864C3.09408 26.8069 3.23908 26.6584 3.41858 26.6584H14.3894C14.569 26.6584 14.714 26.8069 14.714 26.9864V32.0177H3.09408V26.9864ZM16.1056 32.1179V26.9864C16.1056 26.3994 15.8052 25.8538 15.3079 25.5396V3.68783C15.3114 2.67953 14.752 1.75063 13.8576 1.28793C12.9356 0.790634 11.8133 0.845934 10.9397 1.42603L5.63208 4.96213C3.68798 6.23973 2.51388 8.40833 2.50358 10.7392V25.5396C2.00628 25.8538 1.70588 26.3994 1.70588 26.9864V32.1179C0.756179 32.3907 0.10008 33.2609 0.0966797 34.2485V57.0809C0.0966797 58.3103 1.09468 59.3082 2.32738 59.3082H15.491C16.7203 59.3082 17.7183 58.3103 17.7183 57.0809V34.2485C17.7114 33.2609 17.0553 32.3907 16.1056 32.1179Z" fill="#14142B"/>
</svg>
