<svg width="50" height="41" viewBox="0 0 50 41" fill="none" xmlns="http://www.w3.org/2000/svg">
<path d="M28.6798 28.1492H12.4999C10.8213 28.1492 9.46617 29.5043 9.46617 31.183C9.46617 32.8616 10.8213 34.2167 12.4999 34.2167H31.7135C34.5045 34.2167 36.7697 31.9515 36.7697 29.1605V28.1492C36.7697 25.3582 34.5045 23.093 31.7135 23.093H3.52007C2.04367 23.093 1.06277 21.5661 1.67967 20.2312L9.87067 2.36264C10.2044 1.64464 10.9224 1.17944 11.7112 1.17944H40.9461C46.0934 1.17944 49.926 5.92215 48.8642 10.948L44.3844 32.0526C43.4945 36.2594 39.7832 39.2628 35.4854 39.2628H32.745H8.47517C5.12797 39.2628 2.40767 36.5425 2.40767 33.1953V29.1504C2.40767 25.8032 5.12797 23.0829 8.47517 23.0829H31.7338" stroke="#14142B" stroke-width="1.8" stroke-miterlimit="10" stroke-linecap="round" stroke-linejoin="round"/>
<path d="M12.5 23.093L20.5899 1.85693" stroke="#14142B" stroke-width="1.8" stroke-miterlimit="10" stroke-linecap="round" stroke-linejoin="round"/>
<path d="M18.5674 23.093L26.6573 1.85693" stroke="#14142B" stroke-width="1.8" stroke-miterlimit="10" stroke-linecap="round" stroke-linejoin="round"/>
<path d="M19.4288 2.12842H27.6984L20.1257 22.0359H11.833L19.4288 2.12842Z" fill="#EBA37A"/>
</svg>
