<svg width="9" height="9" viewBox="0 0 9 9"  xmlns="http://www.w3.org/2000/svg">
<path d="M0.46966 6.96968C0.176772 7.26258 0.176781 7.73745 0.46968 8.03034C0.762578 8.32323 1.23745 8.32322 1.53034 8.03032L0.46966 6.96968ZM8.43159 0.818154C8.43158 0.403941 8.09579 0.0681606 7.68157 0.0681682L0.931574 0.0682915C0.517361 0.0682991 0.18158 0.404092 0.181588 0.818305C0.181595 1.23252 0.517388 1.5683 0.931601 1.56829L6.9316 1.56818L6.93171 7.56818C6.93172 7.9824 7.26751 8.31818 7.68172 8.31817C8.09594 8.31816 8.43172 7.98237 8.43171 7.56815L8.43159 0.818154ZM1.53034 8.03032L8.21193 1.34849L7.15125 0.287848L0.46966 6.96968L1.53034 8.03032Z"/>
</svg>
