<svg width="24" height="25" viewBox="0 0 24 25" fill="none" xmlns="http://www.w3.org/2000/svg">
<path d="M12.2176 0.269531C5.71098 0.269531 0.43575 5.50351 0.43575 11.9605C0.43575 14.1692 1.05354 16.235 2.12641 17.9973L0 24.2695L6.52307 22.1972C8.211 23.1232 10.1522 23.6515 12.2176 23.6515C18.7251 23.6515 24 18.4168 24 11.9605C24 5.50351 18.7251 0.269531 12.2176 0.269531ZM18.0762 16.4004C17.7991 17.0876 16.5455 17.7147 15.9924 17.7435C15.4398 17.7728 15.4241 18.1718 12.4117 16.8631C9.39964 15.5542 7.58748 12.3715 7.44461 12.1665C7.30163 11.9623 6.27782 10.5033 6.33305 9.03505C6.38866 7.56649 7.19272 6.87365 7.4797 6.58549C7.76636 6.2969 8.09502 6.24521 8.2957 6.24194C8.53291 6.23808 8.68655 6.23487 8.86211 6.24135C9.0375 6.24799 9.30097 6.20466 9.52907 6.8113C9.75707 7.41789 10.3028 8.90878 10.3726 9.06071C10.4423 9.2128 10.4855 9.38889 10.378 9.58416C10.2702 9.77985 10.2151 9.9021 10.0587 10.0707C9.9015 10.2394 9.72798 10.448 9.58773 10.5769C9.4313 10.7197 9.26791 10.8754 9.43238 11.1806C9.59673 11.4856 10.1637 12.4854 11.0276 13.3093C12.1379 14.3685 13.0954 14.7198 13.39 14.8799C13.6855 15.0408 13.8618 15.0229 14.045 14.8301C14.2274 14.6373 14.8292 13.9866 15.0412 13.6961C15.2531 13.4047 15.4516 13.4618 15.7238 13.5713C15.9959 13.6812 17.4465 14.4582 17.742 14.6187C18.0372 14.7788 18.2345 14.8613 18.3051 14.9883C18.3756 15.1158 18.3533 15.7132 18.0762 16.4004Z" fill="#7D7E91"/>
</svg>
