<svg width="28" height="21" viewBox="0 0 28 21" fill="none" xmlns="http://www.w3.org/2000/svg">
<path d="M14.6203 20.2433L8.87581 20.1348C7.01586 20.097 5.15129 20.1725 3.32781 19.7808C0.553879 19.1957 0.357364 16.3265 0.151732 13.9199C-0.131608 10.5364 -0.0219189 7.09156 0.512781 3.73635C0.814637 1.85372 2.00256 0.730343 3.83964 0.608098C10.0412 0.164454 16.2839 0.21703 22.4717 0.424006C23.1252 0.44298 23.7832 0.546685 24.4275 0.66473C27.6084 1.24047 27.686 4.49183 27.8922 7.22886C28.0978 9.99415 28.011 12.7737 27.6179 15.5201C27.3026 17.7941 26.6993 19.701 24.1533 19.8851C20.9634 20.1258 17.8466 20.3196 14.6477 20.258C14.6478 20.2433 14.6294 20.2433 14.6203 20.2433ZM11.2431 14.4862C13.647 13.0609 16.005 11.6595 18.3952 10.2438C15.9868 8.81863 13.6333 7.41716 11.2431 6.0015V14.4862Z" fill="#7D7E91"/>
</svg>
